HIERARCHY
ROOT hip
{
  OFFSET 70.0379 68.5282 49.2541
  CHANNELS 6 Xposition Yposition Zposition Zrotation Xrotation Yrotation
  JOINT abdomen
  {
    OFFSET 0 20.6881 -0.73152
    CHANNELS 3 Zrotation Xrotation Yrotation
    JOINT chest
    {
      OFFSET 0 11.7043 -0.48768
      CHANNELS 3 Zrotation Xrotation Yrotation
      JOINT neck
      {
        OFFSET 0 22.1894 -2.19456
        CHANNELS 3 Zrotation Xrotation Yrotation
        JOINT head
        {
          OFFSET -0.24384 7.07133 1.2192
          CHANNELS 3 Zrotation Xrotation Yrotation
          JOINT leftEye
          {
            OFFSET 4.14528 8.04674 8.04672
            CHANNELS 3 Zrotation Xrotation Yrotation
            End Site
            {
              OFFSET 1 0 0
            }
          }
          JOINT rightEye
          {
            OFFSET -3.6576 8.04674 8.04672
            CHANNELS 3 Zrotation Xrotation Yrotation
            End Site
            {
              OFFSET 1 0 0
            }
          }
        }
      }
      JOINT rCollar
      {
        OFFSET -2.68224 19.2634 -4.8768
        CHANNELS 3 Zrotation Xrotation Yrotation
        JOINT rShldr
        {
          OFFSET -8.77824 -1.95073 1.46304
          CHANNELS 3 Zrotation Xrotation Yrotation
          JOINT rForeArm
          {
            OFFSET -28.1742 -1.7115 0.48768
            CHANNELS 3 Zrotation Xrotation Yrotation
            JOINT rHand
            {
              OFFSET -22.5879 0.773209 7.07136
              CHANNELS 3 Zrotation Xrotation Yrotation
              JOINT rThumb1
              {
                OFFSET -1.2192 -0.487915 3.41376
                CHANNELS 3 Zrotation Xrotation Yrotation
                JOINT rThumb2
                {
                  OFFSET -3.37035 -0.52449 3.41376
                  CHANNELS 3 Zrotation Xrotation Yrotation
                  End Site
                  {
                    OFFSET -1.78271 -1.18214 1.43049
                  }
                }
              }
              JOINT rIndex1
              {
                OFFSET -7.75947 0.938293 5.60832
                CHANNELS 3 Zrotation Xrotation Yrotation
                JOINT rIndex2
                {
                  OFFSET -2.54057 -0.884171 1.56538
                  CHANNELS 3 Zrotation Xrotation Yrotation
                  End Site
                  {
                    OFFSET -1.62519 -0.234802 1.16502
                  }
                }
              }
              JOINT rMid1
              {
                OFFSET -8.24714 1.18213 3.41376
                CHANNELS 3 Zrotation Xrotation Yrotation
                JOINT rMid2
                {
                  OFFSET -3.10165 -0.590103 1.0647
                  CHANNELS 3 Zrotation Xrotation Yrotation
                  End Site
                  {
                    OFFSET -2.48547 -0.328903 0.83742
                  }
                }
              }
              JOINT rRing1
              {
                OFFSET -8.82822 0.546677 1.51678
                CHANNELS 3 Zrotation Xrotation Yrotation
                JOINT rRing2
                {
                  OFFSET -2.60934 -0.819778 -0.0198488
                  CHANNELS 3 Zrotation Xrotation Yrotation
                  End Site
                  {
                    OFFSET -2.33842 -0.294052 0.168128
                  }
                }
              }
              JOINT rPinky1
              {
                OFFSET -8.27202 -0.0477905 -0.4584
                CHANNELS 3 Zrotation Xrotation Yrotation
                JOINT rPinky2
                {
                  OFFSET -1.82734 -0.647385 -0.700984
                  CHANNELS 3 Zrotation Xrotation Yrotation
                  End Site
                  {
                    OFFSET -1.69225 -0.51767 -0.607171
                  }
                }
              }
            }
          }
        }
      }
      JOINT lCollar
      {
        OFFSET 2.68224 19.2634 -4.8768
        CHANNELS 3 Zrotation Xrotation Yrotation
        JOINT lShldr
        {
          OFFSET 8.77824 -1.95073 1.46304
          CHANNELS 3 Zrotation Xrotation Yrotation
          JOINT lForeArm
          {
            OFFSET 28.1742 -1.7115 0.48768
            CHANNELS 3 Zrotation Xrotation Yrotation
            JOINT lHand
            {
              OFFSET 22.5879 0.773209 7.07136
              CHANNELS 3 Zrotation Xrotation Yrotation
              JOINT lThumb1
              {
                OFFSET 1.2192 -0.487915 3.41376
                CHANNELS 3 Zrotation Xrotation Yrotation
                JOINT lThumb2
                {
                  OFFSET 3.37035 -0.52449 3.41376
                  CHANNELS 3 Zrotation Xrotation Yrotation
                  End Site
                  {
                    OFFSET 1.78271 -1.18214 1.43049
                  }
                }
              }
              JOINT lIndex1
              {
                OFFSET 7.75947 0.938293 5.60832
                CHANNELS 3 Zrotation Xrotation Yrotation
                JOINT lIndex2
                {
                  OFFSET 2.54057 -0.884171 1.56538
                  CHANNELS 3 Zrotation Xrotation Yrotation
                  End Site
                  {
                    OFFSET 1.62519 -0.234802 1.16502
                  }
                }
              }
              JOINT lMid1
              {
                OFFSET 8.24714 1.18213 3.41376
                CHANNELS 3 Zrotation Xrotation Yrotation
                JOINT lMid2
                {
                  OFFSET 3.10165 -0.590103 1.0647
                  CHANNELS 3 Zrotation Xrotation Yrotation
                  End Site
                  {
                    OFFSET 2.48547 -0.328903 0.83742
                  }
                }
              }
              JOINT lRing1
              {
                OFFSET 8.82822 0.546677 1.51678
                CHANNELS 3 Zrotation Xrotation Yrotation
                JOINT lRing2
                {
                  OFFSET 2.60934 -0.819778 -0.0198488
                  CHANNELS 3 Zrotation Xrotation Yrotation
                  End Site
                  {
                    OFFSET 2.33842 -0.294052 0.168128
                  }
                }
              }
              JOINT lPinky1
              {
                OFFSET 8.27202 -0.0477905 -0.4584
                CHANNELS 3 Zrotation Xrotation Yrotation
                JOINT lPinky2
                {
                  OFFSET 1.82734 -0.647385 -0.700984
                  CHANNELS 3 Zrotation Xrotation Yrotation
                  End Site
                  {
                    OFFSET 1.69225 -0.51767 -0.607171
                  }
                }
              }
            }
          }
        }
      }
    }
  }
  JOINT rButtock
  {
    OFFSET -8.77824 4.35084 1.2192
    CHANNELS 3 Zrotation Xrotation Yrotation
    JOINT rThigh
    {
      OFFSET 0 -1.70687 -2.19456
      CHANNELS 3 Zrotation Xrotation Yrotation
      JOINT rShin
      {
        OFFSET 0 -36.8199 0.73152
        CHANNELS 3 Zrotation Xrotation Yrotation
        JOINT rFoot
        {
          OFFSET 0.73152 -45.1104 -5.12064
          CHANNELS 3 Zrotation Xrotation Yrotation
          End Site
          {
            OFFSET -1.1221 -3.69964 12.103
          }
        }
      }
    }
  }
  JOINT lButtock
  {
    OFFSET 8.77824 4.35084 1.2192
    CHANNELS 3 Zrotation Xrotation Yrotation
    JOINT lThigh
    {
      OFFSET 0 -1.70687 -2.19456
      CHANNELS 3 Zrotation Xrotation Yrotation
      JOINT lShin
      {
        OFFSET 0 -36.8199 0.73152
        CHANNELS 3 Zrotation Xrotation Yrotation
        JOINT lFoot
        {
          OFFSET -0.73152 -45.1104 -5.12064
          CHANNELS 3 Zrotation Xrotation Yrotation
          End Site
          {
            OFFSET 1.1221 -3.69964 12.103
          }
        }
      }
    }
  }
}
MOTION
Frames:	4
Frame Time:	0.00833333
-7.81205 85.1388 128.178 -0.311906 -0.00136734 0.0053034 0.410561 -0.00336363 0.0117798 0.113451 -0.00539419 0.0196579 6.63202e-015 -1.59028e-015 -4.34841e-017 1.99748e-014 3.18055e-015 -1.14922e-016 -0 0 0 -0 0 0 3.37812e-015 -1.55301e-018 1.49089e-016 7.31508e-014 -2.98177e-016 7.95139e-016 1.20881e-012 -3.60993e-013 -1.27222e-014 1.3809e-011 3.58235e-013 -6.04305e-014 3.2577e-011 -2.90833e-015 -1.43125e-013 5.62489e-011 3.18055e-015 -2.54444e-013 3.25816e-011 -3.18055e-015 -1.46306e-013 7.73091 5.47488 0.417314 3.25771e-011 -3.27995e-015 -1.39944e-013 2.90554 0.965183 0.102902 3.25801e-011 -2.48481e-015 -1.4392e-013 10.2786 0.731801 0.0259123 3.25715e-011 0 -1.36764e-013 2.22167 -0.733487 -0.20892 3.38078e-015 -7.76503e-019 -1.49089e-016 6.80348e-014 8.07563e-017 -9.93923e-016 1.20464e-012 3.6318e-013 -1.59028e-014 1.38111e-011 -3.52346e-013 -3.49861e-014 3.25749e-011 2.31478e-014 -1.43125e-013 5.62656e-011 3.49861e-014 -2.44903e-013 3.25713e-011 2.3059e-014 -1.36764e-013 -7.73091 5.47488 -0.417314 3.25762e-011 2.31584e-014 -1.36764e-013 -2.90554 0.965183 -0.102902 3.25668e-011 2.33572e-014 -1.4233e-013 -10.2786 0.731801 -0.0259123 3.25786e-011 2.54444e-014 -1.49486e-013 -2.22167 -0.733487 0.20892 -2.03217e-016 0 -3.88251e-019 0.771181 -4.17175 -0.0657014 -0.00265897 2.0054 -0.018307 -0.462427 2.16694 0.0961811 2.03217e-016 0 3.88251e-019 -0.14266 -2.55999 0.0260559 0.00715903 -0.914029 0.0621352 0.453177 3.47455 -0.121139 
-7.14111 83.6465 124.966 -5.74841 4.97672 48.8799 -1.23732 -8.31054 -0.956334 0.927651 3.63437 -0.373474 0.0399083 3.81424 -1.40004 1.33153 -5.67602 -2.43263 -0 0 0 -0 0 0 -1.93198e-014 -4.19071e-014 4.4416e-016 23.0657 2.63471 -1.57538 -5.12368 -2.54166 7.75722 0.00358251 -1.32774 -0.18642 5.01802e-010 -4.94094e-010 3.30191e-010 8.67237e-010 -8.54229e-010 5.72143e-010 5.01806e-010 -4.94093e-010 3.30185e-010 7.73091 5.47488 0.417314 5.01802e-010 -4.94094e-010 3.30193e-010 2.90554 0.965183 0.102902 5.01806e-010 -4.94093e-010 3.3019e-010 10.2786 0.731801 0.0259123 5.01797e-010 -4.9409e-010 3.30197e-010 2.22167 -0.733487 -0.20892 -1.94223e-014 -4.19076e-014 8.46388e-017 -20.7855 6.58031 -0.760376 3.04022 -1.20844 -4.91979 -0.000135861 0.282815 -0.0397456 4.25063e-010 -1.81423e-010 -3.51748e-010 7.335e-010 -3.14734e-010 -6.08819e-010 4.25059e-010 -1.81425e-010 -3.51741e-010 -7.73091 5.47488 -0.417314 4.25064e-010 -1.81424e-010 -3.51742e-010 -2.90554 0.965183 -0.102902 4.25057e-010 -1.81424e-010 -3.51749e-010 -10.2786 0.731801 -0.0259123 4.25068e-010 -1.81422e-010 -3.51758e-010 -2.22167 -0.733487 0.20892 -2.03217e-016 0 -3.88251e-019 1.03198 -12.7929 1.7232 0.00567739 4.87489 0.0558669 -0.736715 -1.81593 -1.51161 2.03217e-016 0 3.88251e-019 -1.08444 -9.52387 -1.81731 0.0118272 1.07337 0.0483096 0.620169 1.90111 -0.637961 
-7.14662 83.6512 124.965 -15.1155 -2.67317 99.6796 -3.29459 -17.0846 -2.05168 1.84254 7.48136 -0.795034 0.287589 7.8343 -2.90631 2.20309 -11.6299 -5.08441 -0 0 0 -0 0 0 -4.36697e-014 -8.65708e-014 7.45443e-016 47.6085 5.41444 -3.25429 -9.80258 -5.07618 16.0116 -0.00203435 -2.73115 -0.383806 1.00832e-009 -1.03056e-009 6.93644e-010 1.7427e-009 -1.78172e-009 1.20193e-009 1.00832e-009 -1.03056e-009 6.93635e-010 7.73091 5.47488 0.417314 1.00832e-009 -1.03056e-009 6.93645e-010 2.90554 0.965183 0.102902 1.00833e-009 -1.03056e-009 6.93644e-010 10.2786 0.731801 0.0259123 1.00831e-009 -1.03056e-009 6.9365e-010 2.22167 -0.733487 -0.20892 -4.38885e-014 -8.65725e-014 3.16813e-016 -42.5643 13.5281 -1.59534 6.03174 -2.45757 -10.1315 0.000169357 0.595003 -0.0836228 8.39599e-010 -3.83663e-010 -7.46406e-010 1.4487e-009 -6.65545e-010 -1.29191e-009 8.39595e-010 -3.83668e-010 -7.46398e-010 -7.73091 5.47488 -0.417314 8.39601e-010 -3.83665e-010 -7.46402e-010 -2.90554 0.965183 -0.102902 8.39596e-010 -3.83665e-010 -7.4641e-010 -10.2786 0.731801 -0.0259123 8.39606e-010 -3.83663e-010 -7.46421e-010 -2.22167 -0.733487 0.20892 -2.03217e-016 0 -3.88251e-019 1.93728 -21.8781 3.79961 0.00651417 7.91115 0.135208 -1.271 -6.02054 -3.22831 2.03217e-016 0 3.88251e-019 -2.58556 -16.8622 -3.88088 0.0177247 3.17537 0.0337179 0.765926 0.236396 -1.1828 
-7.14473 83.6621 124.96 -12.7553 -18.5777 143.727 -5.44798 -24.8951 -3.15594 2.70821 10.9119 -1.1788 0.687981 11.4151 -4.27555 2.49762 -16.9025 -7.59186 -0 0 0 -0 0 0 -6.47156e-014 -1.25718e-013 1.0343e-015 69.6346 7.88012 -4.76626 -13.3564 -7.06713 23.4372 -0.0152253 -3.98304 -0.560464 1.44025e-009 -1.48227e-009 9.90859e-010 2.48921e-009 -2.56269e-009 1.71694e-009 1.44025e-009 -1.48227e-009 9.90848e-010 7.73091 5.47488 0.417314 1.44025e-009 -1.48228e-009 9.9086e-010 2.90554 0.965183 0.102902 1.44026e-009 -1.48227e-009 9.90859e-010 10.2786 0.731801 0.0259123 1.44025e-009 -1.48227e-009 9.90865e-010 2.22167 -0.733487 -0.20892 -6.50286e-014 -1.25721e-013 5.52093e-016 -61.805 19.7266 -2.40746 8.50474 -3.51855 -14.7846 0.000769644 0.848443 -0.119248 1.21004e-009 -5.44316e-010 -1.05496e-009 2.08797e-009 -9.44271e-010 -1.82597e-009 1.21003e-009 -5.44322e-010 -1.05495e-009 -7.73091 5.47488 -0.417314 1.21004e-009 -5.44318e-010 -1.05495e-009 -2.90554 0.965183 -0.102902 1.21004e-009 -5.44319e-010 -1.05496e-009 -10.2786 0.731801 -0.0259123 1.21005e-009 -5.44317e-010 -1.05498e-009 -2.22167 -0.733487 0.20892 -2.03217e-016 0 -3.88251e-019 3.38472 -29.917 5.97017 -0.000276908 10.6138 0.20713 -1.96257 -9.75 -4.7942 2.03217e-016 0 3.88251e-019 -4.41512 -23.3542 -5.91494 0.0240368 5.04818 0.0207293 0.869018 -1.24489 -1.67139 
